<svg xmlns="http://www.w3.org/2000/svg" viewBox="0 0 245.78 33.86"><defs><style>.cls-1{fill:#fff;}</style></defs><g id="Layer_2" data-name="Layer 2"><g id="Layer_1-2" data-name="Layer 1"><path class="cls-1" d="M21.28,13.85A7.31,7.31,0,0,1,21,15.74c0,.16-.09.31-.14.46a7.45,7.45,0,0,1-1.77,2.88l-.35.33a7.27,7.27,0,0,1-3,1.6c-.15,0-.3.08-.46.12A7.52,7.52,0,0,1,12,21l-.46-.14a7.45,7.45,0,0,1-2.88-1.77c-.11-.11-.22-.23-.32-.35a7.29,7.29,0,0,1-1.61-3,3.45,3.45,0,0,1-.12-.46,7.41,7.41,0,0,1-.15-1.5Z"/><path class="cls-1" d="M21.28,13.85H19.67A5.82,5.82,0,0,0,8,13.85H6.43A7.75,7.75,0,0,1,6.67,12c0-.16.09-.31.14-.46A7.65,7.65,0,0,1,8.58,8.63l.35-.32a7.43,7.43,0,0,1,3-1.62l.46-.11a8.09,8.09,0,0,1,1.49-.15,7.36,7.36,0,0,1,1.89.25l.46.13a7.57,7.57,0,0,1,2.88,1.77l.33.35a7.41,7.41,0,0,1,1.61,3c0,.15.08.31.11.46A7.31,7.31,0,0,1,21.28,13.85Z"/><rect class="cls-1" x="11.9" width="4.3" height="7.42"/><rect class="cls-1" x="6.8" y="1.26" width="4.3" height="7.42" transform="translate(-1.29 5.14) rotate(-30)"/><rect class="cls-1" x="3.02" y="4.9" width="4.3" height="7.42" transform="translate(-4.88 8.78) rotate(-60)"/><rect class="cls-1" x="1.56" y="9.95" width="4.3" height="7.42" transform="translate(-9.95 17.37) rotate(-90)"/><rect class="cls-1" x="2.82" y="15.05" width="4.3" height="7.42" transform="translate(-8.79 32.45) rotate(-120)"/><rect class="cls-1" x="6.47" y="18.83" width="4.3" height="7.42" transform="translate(4.81 46.37) rotate(-150)"/><rect class="cls-1" x="11.51" y="20.29" width="4.3" height="7.42" transform="translate(27.32 48) rotate(-180)"/><rect class="cls-1" x="16.61" y="19.02" width="4.3" height="7.42" transform="translate(46.37 33.05) rotate(150)"/><rect class="cls-1" x="20.39" y="15.38" width="4.3" height="7.42" transform="translate(50.35 9.12) rotate(120)"/><rect class="cls-1" x="21.85" y="10.34" width="4.3" height="7.42" transform="translate(38.05 -9.95) rotate(90)"/><rect class="cls-1" x="20.59" y="5.24" width="4.3" height="7.42" transform="translate(19.12 -15.21) rotate(60)"/><rect class="cls-1" x="16.94" y="1.46" width="4.3" height="7.42" transform="matrix(0.87, 0.5, -0.5, 0.87, 5.14, -8.85)"/><path class="cls-1" d="M40.65,26.87a8.65,8.65,0,0,1-3.85-2.76,7.83,7.83,0,0,1-1.56-4.38l0-.33h6.35l0,.18a2.85,2.85,0,0,0,.86,1.52,4.77,4.77,0,0,0,1.74,1,7.1,7.1,0,0,0,2.37.37,6.51,6.51,0,0,0,2.33-.37,3.59,3.59,0,0,0,1.52-1A2.19,2.19,0,0,0,51,19.64v0a2,2,0,0,0-1-1.76,10.12,10.12,0,0,0-3.35-1.07l-2.75-.54a11.85,11.85,0,0,1-6.06-2.69,6.56,6.56,0,0,1-2.08-5v0A7.46,7.46,0,0,1,37.12,4a9,9,0,0,1,3.79-3,13.6,13.6,0,0,1,5.48-1,14.59,14.59,0,0,1,5.73,1,8.25,8.25,0,0,1,3.66,2.8A7.79,7.79,0,0,1,57.19,8l0,.39H50.86l0-.2a2.7,2.7,0,0,0-.69-1.53,3.83,3.83,0,0,0-1.53-1,6.29,6.29,0,0,0-2.17-.35,5.86,5.86,0,0,0-2.13.35,3.16,3.16,0,0,0-1.33,1A2.25,2.25,0,0,0,42.54,8v0a2,2,0,0,0,1,1.71,9.32,9.32,0,0,0,3.15,1l2.75.53a16.29,16.29,0,0,1,4.71,1.52,6.78,6.78,0,0,1,2.74,2.51A7.05,7.05,0,0,1,57.76,19v0a8,8,0,0,1-1.34,4.65,8.54,8.54,0,0,1-3.87,3.05,15.63,15.63,0,0,1-6.08,1.07A16,16,0,0,1,40.65,26.87Z"/><path class="cls-1" d="M63.59,26.86a5.88,5.88,0,0,1-2.38-2.62,9.46,9.46,0,0,1-.82-4.12v-13H67V18.71a4.1,4.1,0,0,0,.82,2.71,3,3,0,0,0,2.43,1,3.4,3.4,0,0,0,1.42-.28,3,3,0,0,0,1.08-.78,3.4,3.4,0,0,0,.68-1.21,5,5,0,0,0,.23-1.54V7.07h6.61V27.34H73.66V23.77h-.13a7.07,7.07,0,0,1-1.38,2.17,5.56,5.56,0,0,1-2.05,1.37,7.44,7.44,0,0,1-2.73.46A7.35,7.35,0,0,1,63.59,26.86Z"/><path class="cls-1" d="M83.43,7.07H90v3.58h.13a6.32,6.32,0,0,1,2.33-3,7.62,7.62,0,0,1,9,1,8.15,8.15,0,0,1,1.81,5.64v13H96.7V15.71A4.13,4.13,0,0,0,95.89,13a3,3,0,0,0-2.44-1,3.33,3.33,0,0,0-1.81.49,3.21,3.21,0,0,0-1.18,1.34,4.45,4.45,0,0,0-.42,2v11.5H83.43Z"/><path class="cls-1" d="M112.2,26.17a11.15,11.15,0,0,1-4.52-4.77,16.35,16.35,0,0,1-1.59-7.5h0a16.18,16.18,0,0,1,1.6-7.49,11.18,11.18,0,0,1,4.53-4.75A13.91,13.91,0,0,1,119.15,0a13.4,13.4,0,0,1,6.21,1.38,10.93,10.93,0,0,1,4.25,3.76,10.41,10.41,0,0,1,1.66,5.4l0,.16H124.7l0-.26A6.2,6.2,0,0,0,123.74,8a4.86,4.86,0,0,0-1.85-1.69,5.74,5.74,0,0,0-2.74-.61,5.38,5.38,0,0,0-3.23,1,6.23,6.23,0,0,0-2.11,2.82,11.61,11.61,0,0,0-.74,4.4v0a11.86,11.86,0,0,0,.74,4.44,6.17,6.17,0,0,0,2.12,2.85,5.41,5.41,0,0,0,3.24,1,5.81,5.81,0,0,0,2.65-.59,5.06,5.06,0,0,0,1.89-1.67,6.25,6.25,0,0,0,1-2.6l0-.18h6.57v.2a10.43,10.43,0,0,1-1.7,5.37,11,11,0,0,1-4.27,3.75,13.35,13.35,0,0,1-6.19,1.38A13.85,13.85,0,0,1,112.2,26.17Z"/><path class="cls-1" d="M138.29,26.53a8.56,8.56,0,0,1-3.58-3.62,11.93,11.93,0,0,1-1.26-5.69v0a11.78,11.78,0,0,1,1.28-5.65,8.83,8.83,0,0,1,3.61-3.63,12.66,12.66,0,0,1,11,0,8.84,8.84,0,0,1,3.61,3.61,11.64,11.64,0,0,1,1.28,5.67v0a12,12,0,0,1-1.26,5.71,8.54,8.54,0,0,1-3.59,3.6,13,13,0,0,1-11.06,0Zm7.5-4.41a4,4,0,0,0,1.26-1.89,9.17,9.17,0,0,0,.43-3v0a8.8,8.8,0,0,0-.45-3,4.28,4.28,0,0,0-1.28-1.89,3.19,3.19,0,0,0-3.86,0,4.2,4.2,0,0,0-1.28,1.89,8.54,8.54,0,0,0-.46,3v0a8.88,8.88,0,0,0,.45,3,4,4,0,0,0,1.27,1.89,3.11,3.11,0,0,0,2,.65A3.08,3.08,0,0,0,145.79,22.12Z"/><path class="cls-1" d="M159.86,26.86a5.94,5.94,0,0,1-2.38-2.62,9.46,9.46,0,0,1-.82-4.12v-13h6.61V18.71a4.1,4.1,0,0,0,.82,2.71,3,3,0,0,0,2.44,1,3.38,3.38,0,0,0,1.41-.28,3,3,0,0,0,1.08-.78,3.4,3.4,0,0,0,.68-1.21,4.74,4.74,0,0,0,.23-1.54V7.07h6.61V27.34h-6.61V23.77h-.13a6.88,6.88,0,0,1-1.38,2.17,5.61,5.61,0,0,1-2,1.37,7.53,7.53,0,0,1-2.74.46A7.35,7.35,0,0,1,159.86,26.86Z"/><path class="cls-1" d="M179.7,7.07h6.61v3.61h.15a6.71,6.71,0,0,1,1.4-2.16,5.87,5.87,0,0,1,2-1.39,6.91,6.91,0,0,1,2.62-.48,7.57,7.57,0,0,1,4.37,1.23,7.77,7.77,0,0,1,2.77,3.6,15.25,15.25,0,0,1,1,5.72v0a15.51,15.51,0,0,1-.94,5.69A7.78,7.78,0,0,1,197,26.53a8.06,8.06,0,0,1-7,.77A6.27,6.27,0,0,1,187.85,26a6.64,6.64,0,0,1-1.41-2.09h-.13v10H179.7Zm12.44,14.69A4,4,0,0,0,193.46,20a7.32,7.32,0,0,0,.47-2.75v0a7.25,7.25,0,0,0-.48-2.78,4,4,0,0,0-1.32-1.78,3.36,3.36,0,0,0-2-.62,3.31,3.31,0,0,0-2,.63,4,4,0,0,0-1.34,1.78,7.19,7.19,0,0,0-.48,2.77v0a7.19,7.19,0,0,0,.48,2.77,4,4,0,0,0,1.34,1.78,3.3,3.3,0,0,0,2,.62A3.33,3.33,0,0,0,192.14,21.76Z"/><path class="cls-1" d="M207.44,26.53a8.56,8.56,0,0,1-3.58-3.62,11.93,11.93,0,0,1-1.26-5.69v0a11.78,11.78,0,0,1,1.28-5.65A8.79,8.79,0,0,1,207.5,7.9a12.64,12.64,0,0,1,11,0,8.84,8.84,0,0,1,3.61,3.61,11.64,11.64,0,0,1,1.28,5.67v0a12,12,0,0,1-1.26,5.71,8.52,8.52,0,0,1-3.58,3.6,13,13,0,0,1-11.07,0Zm7.5-4.41a3.94,3.94,0,0,0,1.26-1.89,9.15,9.15,0,0,0,.44-3v0a8.78,8.78,0,0,0-.46-3,4.28,4.28,0,0,0-1.28-1.89,3,3,0,0,0-1.93-.65,3.06,3.06,0,0,0-1.93.65,4.2,4.2,0,0,0-1.28,1.89,8.54,8.54,0,0,0-.46,3v0a8.88,8.88,0,0,0,.45,3A4,4,0,0,0,211,22.12a3.13,3.13,0,0,0,2,.65A3.06,3.06,0,0,0,214.94,22.12Z"/><path class="cls-1" d="M225.9,7.07h6.61v3.58h.13a6.32,6.32,0,0,1,2.33-3,7.62,7.62,0,0,1,9,1,8.15,8.15,0,0,1,1.81,5.64v13h-6.6V15.71a4.13,4.13,0,0,0-.82-2.71,3,3,0,0,0-2.44-1,3.33,3.33,0,0,0-1.81.49,3.21,3.21,0,0,0-1.18,1.34,4.45,4.45,0,0,0-.42,2v11.5H225.9Z"/></g></g></svg>